<svg width="191" height="69" viewBox="0 0 191 69" fill="none" xmlns="http://www.w3.org/2000/svg">
<path d="M80.7804 53.8808C78.3299 53.8808 76.1676 53.4303 74.2937 52.5294C72.4198 51.5924 70.9603 50.187 69.9152 48.313C68.8701 46.4031 68.3476 44.0066 68.3476 41.1236V24.6367H75.1045V40.2047C75.1045 42.7994 75.6811 44.7454 76.8343 46.0427C78.0235 47.304 79.6993 47.9347 81.8615 47.9347C83.4471 47.9347 84.8165 47.6103 85.9697 46.9617C87.1589 46.313 88.0779 45.34 88.7266 44.0426C89.4113 42.7453 89.7536 41.1417 89.7536 39.2317V24.6367H96.5106V53.5024H90.0779V45.7184L91.2131 48.0968C90.2401 49.9707 88.8166 51.4122 86.9427 52.4213C85.0688 53.3943 83.0147 53.8808 80.7804 53.8808ZM117.005 53.8808C114.23 53.8808 111.725 53.2681 109.491 52.0429C107.293 50.7816 105.563 49.0518 104.302 46.8535C103.04 44.6553 102.41 42.0606 102.41 39.0695C102.41 36.0785 103.04 33.4838 104.302 31.2855C105.563 29.0873 107.293 27.3755 109.491 26.1502C111.725 24.925 114.23 24.3124 117.005 24.3124C119.419 24.3124 121.581 24.8529 123.491 25.934C125.401 26.9791 126.915 28.5827 128.032 30.745C129.149 32.9072 129.708 35.682 129.708 39.0695C129.708 42.421 129.167 45.1958 128.086 47.3941C127.005 49.5563 125.509 51.178 123.599 52.2591C121.689 53.3402 119.491 53.8808 117.005 53.8808ZM117.815 48.0968C119.437 48.0968 120.879 47.7364 122.14 47.0157C123.437 46.295 124.464 45.2499 125.221 43.8805C126.014 42.5111 126.41 40.9074 126.41 39.0695C126.41 37.1956 126.014 35.592 125.221 34.2586C124.464 32.8892 123.437 31.8441 122.14 31.1234C120.879 30.4026 119.437 30.0422 117.815 30.0422C116.194 30.0422 114.734 30.4026 113.437 31.1234C112.176 31.8441 111.149 32.8892 110.356 34.2586C109.599 35.592 109.221 37.1956 109.221 39.0695C109.221 40.9074 109.599 42.5111 110.356 43.8805C111.149 45.2499 112.176 46.295 113.437 47.0157C114.734 47.7364 116.194 48.0968 117.815 48.0968ZM126.572 53.5024V46.6914L126.843 39.0155L126.302 31.3396V13.3931H133.005V53.5024H126.572ZM141.329 53.5024V24.6367H147.762V32.5829L147.005 30.2585C147.87 28.3125 149.221 26.8349 151.059 25.8259C152.933 24.8169 155.257 24.3124 158.032 24.3124V30.745C157.744 30.6729 157.474 30.6369 157.221 30.6369C156.969 30.6008 156.717 30.5828 156.465 30.5828C153.906 30.5828 151.87 31.3396 150.356 32.8531C148.843 34.3307 148.086 36.5469 148.086 39.502V53.5024H141.329ZM178.92 53.5024V47.6644L178.542 46.4211V36.2046C178.542 34.2225 177.947 32.691 176.758 31.6099C175.569 30.4927 173.767 29.9341 171.353 29.9341C169.731 29.9341 168.127 30.1864 166.542 30.6909C164.992 31.1954 163.677 31.8982 162.596 32.7991L159.947 27.88C161.496 26.6908 163.334 25.8079 165.461 25.2313C167.623 24.6187 169.857 24.3124 172.163 24.3124C176.344 24.3124 179.569 25.3214 181.839 27.3395C184.146 29.3215 185.299 32.4027 185.299 36.583V53.5024H178.92ZM169.839 53.8808C167.677 53.8808 165.785 53.5204 164.163 52.7997C162.542 52.0429 161.28 51.0158 160.379 49.7185C159.514 48.3851 159.082 46.8896 159.082 45.2319C159.082 43.6102 159.46 42.1507 160.217 40.8534C161.01 39.556 162.289 38.529 164.055 37.7722C165.821 37.0154 168.163 36.637 171.082 36.637H179.461V41.1236H171.569C169.262 41.1236 167.713 41.502 166.92 42.2588C166.127 42.9796 165.731 43.8805 165.731 44.9616C165.731 46.1869 166.217 47.1599 167.19 47.8806C168.163 48.6013 169.515 48.9617 171.244 48.9617C172.902 48.9617 174.38 48.5833 175.677 47.8265C177.01 47.0698 177.965 45.9526 178.542 44.4751L179.677 48.5293C179.028 50.223 177.857 51.5384 176.164 52.4753C174.506 53.4123 172.398 53.8808 169.839 53.8808Z" fill="white"/>
<path d="M12.681 30.9247C11.4076 30.7184 10.1963 31.5839 10.1126 32.8712C9.84364 37.0125 10.6353 41.1681 12.4305 44.9382C14.5616 49.4136 18.0057 53.1335 22.3041 55.6024C26.6024 58.0712 31.551 59.1719 36.4905 58.7576C41.4301 58.3434 46.1262 56.4339 49.9534 53.2837C53.7805 50.1334 56.5569 45.8919 57.9129 41.124C59.2688 36.3561 59.1398 31.2883 57.5432 26.5956C55.9465 21.9029 52.9579 17.808 48.9756 14.8564C45.6208 12.37 41.6949 10.7944 37.5791 10.2624C36.2997 10.0971 35.2175 11.1195 35.1752 12.4088L35.0202 17.1356C34.9779 18.4249 35.9956 19.486 37.2628 19.7279C39.4671 20.1486 41.5591 21.0611 43.3779 22.4091C45.8254 24.223 47.6621 26.7396 48.6433 29.6237C49.6246 32.5077 49.7038 35.6223 48.8705 38.5525C48.0372 41.4827 46.3309 44.0894 43.9788 46.0255C41.6268 47.9616 38.7407 49.135 35.7049 49.3896C32.6692 49.6442 29.6279 48.9678 26.9863 47.4505C24.3446 45.9332 22.228 43.6471 20.9183 40.8966C19.945 38.8525 19.4516 36.6242 19.4624 34.3801C19.4686 33.0901 18.6229 31.8874 17.3495 31.6811L12.681 30.9247Z" fill="white"/>
<path d="M47.6114 55.5149C46.6961 54.6495 46.6556 53.206 47.521 52.2907L53.4709 45.9977L60.1672 52.3288C61.0453 53.1591 61.0841 54.544 60.2539 55.4222C56.9328 58.9349 51.3929 59.0901 47.8802 55.769L47.6114 55.5149Z" fill="white"/>
<path d="M21.3453 11.6764L20.805 13.1364C20.0966 15.0508 19.7424 16.0081 19.0441 16.7064C18.3458 17.4046 17.3886 17.7588 15.4742 18.4673L14.0142 19.0075L15.4742 19.5477C17.3886 20.2562 18.3458 20.6104 19.0441 21.3087C19.7424 22.007 20.0966 22.9642 20.805 24.8786L21.3453 26.3386L21.8855 24.8786C22.594 22.9642 22.9482 22.007 23.6464 21.3087C24.3447 20.6104 25.302 20.2562 27.2163 19.5477L28.6764 19.0075L27.2163 18.4673C25.302 17.7588 24.3447 17.4046 23.6464 16.7064C22.9482 16.0081 22.594 15.0508 21.8855 13.1364L21.3453 11.6764Z" fill="#FFC549"/>
<path d="M14.8565 9.34293L14.6221 9.97616C14.3149 10.8065 14.1613 11.2217 13.8584 11.5246C13.5555 11.8274 13.1403 11.981 12.31 12.2883L11.6768 12.5226L12.31 12.7569C13.1403 13.0642 13.5555 13.2178 13.8584 13.5207C14.1613 13.8236 14.3149 14.2388 14.6221 15.0691L14.8565 15.7023L15.0908 15.0691C15.3981 14.2388 15.5517 13.8236 15.8545 13.5207C16.1574 13.2178 16.5726 13.0642 17.4029 12.7569L18.0362 12.5226L17.4029 12.2883C16.5726 11.981 16.1574 11.8274 15.8545 11.5246C15.5517 11.2217 15.3981 10.8065 15.0908 9.97616L14.8565 9.34293Z" fill="#FFC549"/>
</svg>
