<svg width="102" height="102" viewBox="0 0 102 102" fill="none" xmlns="http://www.w3.org/2000/svg">
<rect width="102" height="102" rx="51" fill="#FFC549"/>
<path d="M24.4938 46.7395C22.9411 46.4879 21.464 47.5433 21.362 49.1129C21.034 54.1627 21.9993 59.2297 24.1884 63.8269C26.7869 69.284 30.9865 73.8199 36.2277 76.8303C41.4689 79.8407 47.5029 81.1827 53.526 80.6776C59.5491 80.1725 65.2754 77.8443 69.942 74.003C74.6086 70.1617 77.9941 64.9897 79.6474 59.176C81.3008 53.3623 81.1435 47.1828 79.1966 41.4607C77.2498 35.7386 73.6056 30.7455 68.7497 27.1465C64.659 24.1147 59.8719 22.1935 54.8533 21.5448C53.2933 21.3432 51.9737 22.5899 51.9222 24.162L51.7331 29.9257C51.6816 31.4978 52.9226 32.7916 54.4676 33.0866C57.1555 33.5996 59.7063 34.7122 61.9242 36.3559C64.9085 38.5678 67.1481 41.6364 68.3446 45.153C69.5411 48.6697 69.6377 52.4674 68.6216 56.0404C67.6055 59.6133 65.5249 62.7919 62.6569 65.1527C59.7889 67.5134 56.2697 68.9443 52.5681 69.2547C48.8665 69.5652 45.1581 68.7404 41.937 66.8903C38.7159 65.0401 36.1349 62.2525 34.5379 58.8987C33.3511 56.4063 32.7496 53.6891 32.7627 50.9528C32.7703 49.3799 31.7391 47.9133 30.1864 47.6618L24.4938 46.7395Z" fill="#01021D"/>
<path d="M67.0862 76.7252C65.9702 75.67 65.9208 73.9098 66.976 72.7938L74.231 65.1203L82.3962 72.8402C83.467 73.8526 83.5143 75.5414 82.5019 76.6122C78.4523 80.8954 71.6972 81.0847 67.414 77.0351L67.0862 76.7252Z" fill="#01021D"/>
<path d="M35.0593 23.2715L34.4006 25.0517C33.5368 27.386 33.1049 28.5533 32.2534 29.4048C31.402 30.2562 30.2348 30.6881 27.9004 31.552L26.1201 32.2107L27.9004 32.8694C30.2348 33.7333 31.402 34.1652 32.2534 35.0166C33.1049 35.8681 33.5368 37.0353 34.4006 39.3696L35.0593 41.1499L35.718 39.3696C36.5819 37.0353 37.0138 35.8681 37.8652 35.0166C38.7168 34.1652 39.884 33.7333 42.2182 32.8694L43.9986 32.2107L42.2182 31.552C39.884 30.6881 38.7168 30.2562 37.8652 29.4048C37.0138 28.5533 36.5819 27.386 35.718 25.0517L35.0593 23.2715Z" fill="#01021D"/>
<path d="M27.1462 20.4227L26.8605 21.1948C26.4859 22.2073 26.2985 22.7135 25.9292 23.0828C25.5599 23.4521 25.0537 23.6394 24.0412 24.0141L23.269 24.2998L24.0412 24.5855C25.0537 24.9602 25.5599 25.1476 25.9292 25.5168C26.2985 25.8862 26.4859 26.3924 26.8605 27.4049L27.1462 28.177L27.4319 27.4049C27.8066 26.3924 27.9939 25.8862 28.3632 25.5168C28.7326 25.1476 29.2388 24.9602 30.2512 24.5855L31.0234 24.2998L30.2512 24.0141C29.2388 23.6394 28.7326 23.4521 28.3632 23.0828C27.9939 22.7135 27.8066 22.2073 27.4319 21.1948L27.1462 20.4227Z" fill="#01021D"/>
</svg>
