<svg width="21" height="21" viewBox="0 0 21 21" fill="none" xmlns="http://www.w3.org/2000/svg">
<path d="M10.5 0L9.72622 2.09107C8.71161 4.833 8.2043 6.204 7.20417 7.2042C6.20405 8.20425 4.83306 8.71155 2.09108 9.7263L0 10.5L2.09108 11.2737C4.83306 12.2885 6.20405 12.7958 7.20417 13.7958C8.2043 14.796 8.71161 16.167 9.72622 18.9088L10.5 21L11.2737 18.9088C12.2885 16.167 12.7958 14.796 13.7958 13.7958C14.796 12.7958 16.167 12.2885 18.9088 11.2737L21 10.5L18.9088 9.7263C16.167 8.71155 14.796 8.20425 13.7958 7.2042C12.7958 6.204 12.2885 4.833 11.2737 2.09107L10.5 0Z" fill="#FFC549"/>
</svg>
