<svg width="24" height="16" viewBox="0 0 24 16" fill="none" xmlns="http://www.w3.org/2000/svg">
<g clip-path="url(#clip0_2832_133)">
<path d="M6.95472 -1.74705e-06C7.60673 -1.74705e-06 8.25873 0.0621901 8.87969 0.186575C9.4075 0.310959 9.90427 0.528632 10.37 0.839593C10.7736 1.15055 11.1151 1.55481 11.3325 2.02125C11.5809 2.61207 11.705 3.234 11.674 3.85592C11.705 4.54004 11.5188 5.22415 11.1772 5.81498C10.8047 6.37471 10.2768 6.81005 9.68693 7.08992C10.5252 7.30759 11.2393 7.83622 11.705 8.52034C12.1708 9.26665 12.3881 10.1373 12.3881 11.008C12.3881 11.7232 12.2639 12.4074 11.9534 13.0293C11.674 13.589 11.2704 14.0555 10.8047 14.4597C10.3079 14.8329 9.71798 15.1127 9.12807 15.2682C8.50712 15.4548 7.85511 15.517 7.2031 15.517H0V-0.0310974H6.95472V-1.74705e-06ZM6.52005 6.28142C7.01682 6.31251 7.54463 6.15703 7.94825 5.84607C8.35188 5.50402 8.56921 4.97538 8.50712 4.41565C8.50712 4.10469 8.44502 3.79373 8.32083 3.51386C8.19664 3.29619 8.0414 3.10961 7.82406 2.98523C7.60673 2.86084 7.35835 2.73646 7.10996 2.70536C6.83053 2.64317 6.5511 2.64317 6.27167 2.64317H3.22898V6.28142H6.52005ZM6.70634 12.936C7.01682 12.936 7.3273 12.9049 7.60673 12.8427C7.88616 12.7805 8.13454 12.6561 8.38292 12.5006C8.60026 12.3452 8.78655 12.1275 8.91074 11.8787C9.06598 11.5678 9.12807 11.2257 9.09703 10.8836C9.15912 10.2306 8.91074 9.60871 8.44502 9.17336C7.94825 8.80021 7.35834 8.64472 6.73739 8.67582H3.22898V12.9671H6.70634V12.936Z" fill="#040024"/>
<path d="M16.983 12.8738C17.5109 13.3403 18.1939 13.589 18.877 13.5579C19.4358 13.5579 19.9636 13.4025 20.3983 13.0915C20.7709 12.8427 21.0193 12.5007 21.1745 12.0964H23.7515C23.472 13.247 22.789 14.2731 21.8576 14.9884C20.9572 15.6103 19.8705 15.8901 18.7528 15.8591C17.9766 15.8591 17.2004 15.7347 16.4552 15.4237C15.8032 15.1438 15.2133 14.7396 14.7476 14.211C14.2819 13.6512 13.9093 13.0293 13.6609 12.3452C13.3815 11.5678 13.2573 10.7593 13.2883 9.95078C13.2883 9.14228 13.4125 8.36488 13.692 7.58748C14.4371 5.41075 16.4863 3.94923 18.7838 3.98032C19.6221 3.94923 20.4294 4.1669 21.1745 4.54005C21.8265 4.91321 22.4164 5.41075 22.8511 6.03267C23.2858 6.68569 23.6273 7.4009 23.7825 8.1783C23.9688 8.9868 24.0309 9.85749 23.9999 10.6971H16.3C16.2068 11.4745 16.4552 12.2519 16.983 12.8738ZM20.3362 6.93446C19.9015 6.49911 19.3116 6.28144 18.6907 6.31254C18.2871 6.31254 17.8834 6.37473 17.5419 6.5613C17.2625 6.71678 17.0141 6.93446 16.7968 7.18323C16.6105 7.432 16.4863 7.68076 16.3931 7.99173C16.331 8.24049 16.2689 8.48927 16.2689 8.73804H21.0503C20.9882 8.08502 20.7398 7.46309 20.3362 6.93446Z" fill="#040024"/>
<path d="M21.6096 1.02623H15.6484V2.54994H21.6096V1.02623Z" fill="#040024"/>
</g>
<defs>
<clipPath id="clip0_2832_133">
<rect width="24" height="15.859" fill="white"/>
</clipPath>
</defs>
</svg>
