<svg width="24" height="24" viewBox="0 0 24 24" fill="none" xmlns="http://www.w3.org/2000/svg">
<g clip-path="url(#clip0_2832_127)">
<path fill-rule="evenodd" clip-rule="evenodd" d="M0 12C0 5.3625 5.3625 0 12 0C18.6375 0 24 5.3625 24 12C24 18.6375 18.6375 24 12 24H11.025V23.9625C4.875 23.475 0 18.3 0 12ZM12.3 22.05C17.7 21.9 22.05 17.4375 22.05 12C22.05 6.45 17.55 1.95 12 1.95C6.45 1.95 1.95 6.45 1.95 12C1.95 17.55 6.45 22.05 12 22.05H12.3Z" fill="#040024"/>
<path fill-rule="evenodd" clip-rule="evenodd" d="M7.1249 3.225C6.9749 3.1875 6.8624 3.15 6.7124 3.075L7.3499 1.2375C7.4249 1.275 7.4999 1.275 7.6499 1.3125C7.8749 1.3875 8.1374 1.4625 8.2874 1.5375C8.3249 1.5375 8.3624 1.575 8.4374 1.575C8.6999 1.6875 8.9999 1.8 9.2624 1.9125L9.2999 1.95C9.4124 2.025 9.5999 2.1 9.7499 2.175C9.8249 2.2125 9.8999 2.25 9.9749 2.2875H10.0124H10.0499C10.0874 2.325 10.1999 2.3625 10.3124 2.4375H10.3499C10.3499 2.4375 10.3874 2.4375 10.3874 2.475C10.3874 2.475 10.4249 2.475 10.4249 2.5125C10.4249 2.5125 10.4249 2.5125 10.4624 2.5125C10.4624 2.5125 10.4624 2.5125 10.4999 2.5125C10.4999 2.5125 10.5374 2.5125 10.5374 2.55C10.6124 2.5875 10.7249 2.6625 10.7999 2.7C10.9124 2.775 11.0624 2.85 11.1749 2.925C11.2874 3 11.4374 3.1125 11.5499 3.15L11.5874 3.1875C11.6624 3.225 11.7374 3.2625 11.7749 3.3C11.8499 3.3375 11.9249 3.4125 11.9999 3.45C12.0374 3.4875 12.0749 3.4875 12.0749 3.525C12.1124 3.5625 12.1499 3.5625 12.1874 3.6C12.2249 3.6375 12.2249 3.6375 12.2624 3.6375C12.2624 3.6375 12.2624 3.6375 12.2999 3.6375H12.3374H12.3749C13.4624 4.4625 14.3999 5.4 15.2249 6.4875C16.1249 7.6875 16.8374 9 17.3249 10.425C18.7874 14.55 18.3749 19.275 16.0499 23.025L14.3999 22.0125C16.3874 18.7875 16.7624 14.6625 15.4874 11.0625C15.0749 9.8625 14.4374 8.7 13.6499 7.6875C12.9374 6.75 12.1124 5.925 11.1749 5.2125C11.1374 5.175 11.0624 5.1375 11.0249 5.1C10.9874 5.0625 10.9499 5.025 10.9124 5.025C10.8749 4.9875 10.8749 4.9875 10.8374 4.95C10.7624 4.9125 10.7249 4.8375 10.6499 4.8C10.6124 4.7625 10.5749 4.7625 10.5749 4.7625H10.5374V4.875C10.4999 4.8375 10.4249 4.8 10.3874 4.8C10.3124 4.725 10.2374 4.6875 10.1624 4.65L10.1249 4.6125L10.0874 4.575C10.0874 4.575 10.0499 4.575 10.0124 4.5375C9.9749 4.5 9.8999 4.4625 9.8249 4.425C9.7499 4.3875 9.6374 4.3125 9.5999 4.275C9.5624 4.275 9.5249 4.2375 9.5249 4.2375L9.4874 4.2C9.4499 4.2 9.4499 4.1625 9.4124 4.1625C9.4124 4.1625 9.3749 4.125 9.3374 4.125C9.2999 4.0875 9.2624 4.0875 9.1874 4.05C9.1124 4.0125 9.0374 3.975 8.9624 3.9375C8.8124 3.8625 8.6624 3.7875 8.5124 3.75L8.4749 3.7125C8.2874 3.6375 8.0624 3.5625 7.8374 3.45C7.7249 3.4125 7.6874 3.375 7.6124 3.375C7.4624 3.3 7.3124 3.2625 7.1249 3.225Z" fill="#040024"/>
<path fill-rule="evenodd" clip-rule="evenodd" d="M11.2498 7.8375C14.1748 7.3125 16.9123 5.6625 18.7498 3.3L20.2873 4.5C18.1123 7.2375 14.9998 9.15 11.5873 9.75C9.8998 10.05 8.13731 10.05 6.44981 9.75C4.76231 9.45 3.1123 8.85 1.6123 7.95L2.6248 6.3C3.8998 7.05 5.32481 7.6125 6.78731 7.875C8.24981 8.1 9.74981 8.1 11.2498 7.8375Z" fill="#040024"/>
<path fill-rule="evenodd" clip-rule="evenodd" d="M6.0376 21.8625C7.6876 13.3875 16.3501 8.70002 23.4001 10.6125L22.8751 12.4875C16.8751 10.8375 9.3751 14.8875 7.9126 22.2375L6.0376 21.8625Z" fill="#040024"/>
</g>
<defs>
<clipPath id="clip0_2832_127">
<rect width="24" height="24" fill="white"/>
</clipPath>
</defs>
</svg>
