<svg width="24" height="24" viewBox="0 0 24 24" fill="none" xmlns="http://www.w3.org/2000/svg">
<path fill-rule="evenodd" clip-rule="evenodd" d="M5.55844 10.2083C4.47592 10.2083 4.25 10.4146 4.25 11.4028V13.1944C4.25 14.1826 4.47592 14.3889 5.55844 14.3889H8.17532V21.5556C8.17532 22.5438 8.40125 22.75 9.48377 22.75H12.1006C13.1832 22.75 13.4091 22.5438 13.4091 21.5556V14.3889H16.3475C17.1685 14.3889 17.38 14.2432 17.6056 13.5226L18.1663 11.7309C18.5527 10.4965 18.3146 10.2083 16.9082 10.2083H13.4091V7.22222C13.4091 6.56255 13.9949 6.02778 14.7175 6.02778H18.4416C19.5241 6.02778 19.75 5.82154 19.75 4.83333V2.44444C19.75 1.45624 19.5241 1.25 18.4416 1.25H14.7175C11.1044 1.25 8.17532 3.92386 8.17532 7.22222V10.2083H5.55844Z" fill="#040024"/>
</svg>
