<svg width="24" height="24" viewBox="0 0 24 24" fill="none" xmlns="http://www.w3.org/2000/svg">
<path d="M12.0576 22.25C14.2479 22.25 15.9683 22.2499 17.3115 22.0693C18.6882 21.8842 19.7805 21.4969 20.6387 20.6387C21.4969 19.7805 21.8842 18.6882 22.0693 17.3115C22.2499 15.9683 22.25 14.2479 22.25 12.0576V11.9424C22.25 9.75212 22.2499 8.03174 22.0693 6.68848C21.8842 5.31182 21.4969 4.21953 20.6387 3.36133C19.7805 2.50313 18.6882 2.11575 17.3115 1.93066C15.9683 1.75012 14.2479 1.74999 12.0576 1.75H11.9424C9.75213 1.74999 8.03174 1.75012 6.68848 1.93066C5.31182 2.11575 4.21953 2.50313 3.36133 3.36133C2.50313 4.21953 2.11575 5.31182 1.93066 6.68848C1.75012 8.03174 1.74999 9.75212 1.75 11.9424V12.0576C1.74999 14.2479 1.75012 15.9683 1.93066 17.3115C2.11575 18.6882 2.50313 19.7805 3.36133 20.6387C4.21953 21.4969 5.31182 21.8842 6.68848 22.0693C8.03174 22.2499 9.75212 22.25 11.9424 22.25H12.0576ZM17.5029 7.5C16.9533 7.49978 16.5078 7.05215 16.5078 6.5C16.5078 5.94785 16.9533 5.50022 17.5029 5.5H17.5127C18.0623 5.50022 18.5078 5.94785 18.5078 6.5C18.5078 7.05215 18.0623 7.49978 17.5127 7.5H17.5029ZM12 16.5C9.51472 16.5 7.5 14.4853 7.5 12C7.5 9.51472 9.51472 7.5 12 7.5C14.4853 7.5 16.5 9.51472 16.5 12C16.5 14.4853 14.4853 16.5 12 16.5Z" fill="#040024"/>
</svg>
