<svg width="24" height="25" viewBox="0 0 24 25" fill="none" xmlns="http://www.w3.org/2000/svg">
<path d="M12.0099 3.05176e-05C5.37725 3.05176e-05 0 5.37728 0 12.0099C0 17.1005 3.16309 21.4497 7.63095 23.1993C7.52222 22.2504 7.43326 20.7875 7.67049 19.7496C7.88796 18.8105 9.07411 13.7792 9.07411 13.7792C9.07411 13.7792 8.71827 13.0577 8.71827 12C8.71827 10.3295 9.68696 9.08403 10.8929 9.08403C11.9209 9.08403 12.4151 9.85503 12.4151 10.7743C12.4151 11.8023 11.7627 13.3443 11.4168 14.7776C11.1301 15.9736 12.0197 16.9522 13.196 16.9522C15.3311 16.9522 16.972 14.6985 16.972 11.4563C16.972 8.57991 14.9061 6.57333 11.9505 6.57333C8.53046 6.57333 6.52387 9.13345 6.52387 11.7825C6.52387 12.8105 6.91926 13.9176 7.41349 14.5206C7.51234 14.6392 7.52222 14.7479 7.49257 14.8666C7.40361 15.2422 7.19603 16.0626 7.15649 16.2306C7.10707 16.4481 6.97857 16.4975 6.75122 16.3888C5.24875 15.687 4.30971 13.5025 4.30971 11.7331C4.30971 7.94729 7.05764 4.46789 12.2471 4.46789C16.4085 4.46789 19.6507 7.43329 19.6507 11.4069C19.6507 15.5486 17.0411 18.8797 13.4234 18.8797C12.2076 18.8797 11.0609 18.2471 10.6754 17.4959C10.6754 17.4959 10.0725 19.7891 9.92419 20.3525C9.65731 21.4003 8.92584 22.7051 8.43161 23.5057C9.55846 23.8517 10.7446 24.0395 11.9901 24.0395C18.6227 24.0395 23.9999 18.6623 23.9999 12.0297C24.0197 5.37728 18.6425 3.05176e-05 12.0099 3.05176e-05Z" fill="#040024"/>
</svg>
